<svg xmlns="http://www.w3.org/2000/svg" width="1429" height="780"><defs><linearGradient id="a" x1="19.822%" x2="78.894%" y1="21.658%" y2="107.657%"><stop offset="0%" stop-color="#F3F7FC"/><stop offset="100%" stop-color="#FFF"/></linearGradient><linearGradient id="b" x1="26.383%" x2="93.166%" y1="18.862%" y2="100.103%"><stop offset="0%" stop-color="#F3F7FC"/><stop offset="100%" stop-color="#FFF"/></linearGradient></defs><g fill="none" fill-rule="evenodd" opacity=".6"><path fill="url(#a)" d="M1677.179 504.817c27.71 247.805-323.866 131.975-625.516 165.671s-522.51 273.312-550.22 25.506c-27.71-247.805 329.364-754.099 596.735-582.089 267.37 172.01 551.29 143.106 579 390.912z" transform="rotate(-8 410.04 395.49)"/><path fill="url(#b)" d="M15.884 414.772c-26.352-44.934-42.06-166.079 152.469-166.079 118.48 0 188.708-179.598 235.132-96.869 46.178 82.729 9.034 274.89-78.765 324.01-87.8 49.12-260.811 20.682-308.836-61.062z" transform="translate(0 -95)"/></g></svg>