<svg height="573" viewBox="0 0 553 573" width="553" xmlns="http://www.w3.org/2000/svg" xmlns:xlink="http://www.w3.org/1999/xlink"><linearGradient id="a" x1="0%" x2="96.581396%" y1="131.365892%" y2="-2.628895%"><stop offset="0" stop-color="#fff"/><stop offset=".510471559" stop-color="#fafaff"/><stop offset=".6494" stop-color="#f3f7fc"/><stop offset="1" stop-color="#f3f7fc"/></linearGradient><path d="m210.54523 23.2464985c4.393139 6.4664556 8.379505 13.1784728 11.470973 20.3816132 6.99648 16.125212 9.355758 35.1971632 2.277924 51.3223752-6.833771 15.6340891-21.558921 26.5206531-36.853551 34.0512091-23.511426 11.623249-49.54484 17.025605-74.195228 25.865822-25.2198692 9.003926-49.5448397 22.182399-63.8632171 45.592605-7.3218975 11.868811-13.3421243 22.509814-15.9454656 36.588679-2.4406325 13.505888-2.1965693 27.5029.0813544 41.090642.6508353 4.092693 1.5457339 8.103533 2.5219869 12.114372 7.8913784 30.777054 24.2436162 58.525516 37.7484493 87.256223 13.5048332 28.730708 24.406325 60.244447 20.3386042 91.676333-6.2642901 48.621197-47.9177514 86.7651-94.1270601 102.235481 70.2088616.491123 140.417723 1.0641 210.54523 1.555223 11.796391.081854 23.918199.163708 35.063754-3.928985 29.28759-10.722857 43.199195-46.247436 71.754595-58.852931 24.162262-10.722857 53.124435-2.53747 78.018886-11.459542 22.535173-8.103533 38.887411-28.157731 48.894004-49.357882 4.96262-10.559149 8.867632-22.100545 10.657429-33.723794 2.277924-15.306673-1.545734-30.777054-1.708443-46.083728-.162709-14.324427 3.335531-29.958515 14.481086-38.962441 11.389619-9.085779 27.497793-8.922072 41.734816-6.13904 14.237023 2.783031 28.392692 7.694264 42.873778 6.384602 0-110.257161 0-220.596175 0-330.853335-119.91641 0-239.751466.08185387-359.667876.08185387 6.182935 7.44870199 12.365871 15.06111173 17.897971 23.16464463z" fill="url(#a)" fill-rule="evenodd" opacity=".766857" transform="matrix(1 0 0 -1 .684867 573)"/></svg>